<?xml version="1.0" encoding="UTF-8" standalone="no"?>
<!-- Created with Inkscape (http://www.inkscape.org/) -->

<svg
   width="141.11111mm"
   height="158.04445mm"
   viewBox="0 0 141.11111 158.04445"
   version="1.1"
   id="svg1"
   xml:space="preserve"
   inkscape:version="1.4.3 (0d15f75, 2025-12-25)"
   sodipodi:docname="MPP3.svg"
   xmlns:inkscape="http://www.inkscape.org/namespaces/inkscape"
   xmlns:sodipodi="http://sodipodi.sourceforge.net/DTD/sodipodi-0.dtd"
   xmlns="http://www.w3.org/2000/svg"
   xmlns:svg="http://www.w3.org/2000/svg"><sodipodi:namedview
     id="namedview1"
     pagecolor="#ffffff"
     bordercolor="#000000"
     borderopacity="0.25"
     inkscape:showpageshadow="2"
     inkscape:pageopacity="0.0"
     inkscape:pagecheckerboard="0"
     inkscape:deskcolor="#d1d1d1"
     inkscape:document-units="mm"
     inkscape:zoom="0.58692773"
     inkscape:cx="66.447704"
     inkscape:cy="408.90895"
     inkscape:window-width="1171"
     inkscape:window-height="947"
     inkscape:window-x="708"
     inkscape:window-y="30"
     inkscape:window-maximized="0"
     inkscape:current-layer="layer1" /><defs
     id="defs1" /><g
     inkscape:label="Layer 1"
     inkscape:groupmode="layer"
     id="layer1"
     transform="translate(-1.022959,-1.088443)"><g
       id="g4"
       transform="translate(-38.858574,-24.909508)"><path
         style="display:inline;fill:#00ff00;fill-opacity:1"
         d="m 70.925977,178.39795 h -8.466666 v -14.11111 -14.11111 h 2.822222 2.822222 v 2.82222 2.82222 h 2.822222 2.822222 v 5.64445 5.64444 h 2.822223 2.822222 v 5.64445 5.64444 z m 33.866663,0 h -8.466663 v -5.64444 -5.64445 h 2.822223 2.82222 v -2.82222 -2.82222 h 2.82222 2.82223 v 5.64444 5.64445 h 2.82222 2.82222 v 2.82222 2.82222 z m 36.68889,0 h -5.64444 v -5.64444 -5.64445 h 2.82222 2.82222 v 2.82222 2.82223 h 2.82223 2.82222 v 2.82222 2.82222 z M 87.859311,133.2424 h -2.822223 v -2.82223 -2.82222 h -2.822222 -2.822222 v -5.64444 -5.64445 h -2.822222 -2.822223 v -5.64444 -5.64445 h -5.644444 -5.644444 v -5.644441 -5.644445 h 2.822222 2.822222 v 2.822222 2.822223 h 2.822222 2.822222 V 93.731284 88.08684 h 2.822223 2.822222 v -5.644445 -5.644444 h 2.822222 2.822222 v -2.822222 -2.822223 h 2.822223 2.822222 v 2.822223 2.822222 h 2.822222 2.822222 v 8.466666 8.466667 h 2.822223 2.82222 v 2.822222 2.822223 h 2.82222 2.82223 v -2.822223 -2.822222 h 2.82222 2.82222 V 88.08684 82.442395 h 2.82222 2.82223 v 5.644445 5.644444 h 2.82222 2.82222 v 2.822222 2.822223 h 5.64444 5.64445 v -2.822223 -2.822222 h 2.82222 2.82222 V 90.909062 88.08684 h 2.82223 2.82222 v 2.822222 2.822222 h 2.82222 2.82222 v 2.822222 2.822223 h 2.82222 2.82223 v 2.822221 2.82222 h -5.64445 -5.64444 v 2.82223 2.82222 h -2.82222 -2.82223 v -2.82222 -2.82223 h -8.46666 -8.46667 v 2.82223 2.82222 h -2.82222 -2.82222 v 2.82222 2.82222 h -2.82223 -2.82222 v -2.82222 -2.82222 h -2.82222 -2.82222 v -2.82222 -2.82223 h -2.82223 -2.82222 v 2.82223 2.82222 H 99.1482 96.325977 v 8.46666 8.46667 h -2.822222 -2.822222 v 2.82222 2.82223 z M 104.79264,48.575728 h -2.82222 V 45.753506 42.931284 H 99.1482 96.325977 v -5.644445 -5.644444 h 8.466663 8.46667 v 5.644444 5.644445 h -2.82222 -2.82222 v 2.822222 2.822222 z M 73.748199,37.286839 h -5.644444 v -2.822222 -2.822222 h 5.644444 5.644445 v 2.822222 2.822222 z m 56.444441,0 h -5.64444 v -2.822222 -2.822222 h 5.64444 5.64445 v 2.822222 2.822222 z m 25.4,0 h -2.82222 v -2.822222 -2.822222 h 2.82222 2.82223 v 2.822222 2.822222 z"
         id="path6"
         inkscape:label="Wave" /><path
         style="display:inline;fill:#808080"
         d="m 87.859311,178.39795 h -8.466667 v -5.64444 -5.64445 h -2.822222 -2.822223 v -5.64444 -5.64445 h -2.822222 -2.822222 v -2.82222 -2.82222 h -2.822222 -2.822222 v -2.82222 -2.82223 h 47.977779 47.97778 v 16.93334 16.93333 h -5.64445 -5.64444 v -2.82222 -2.82222 h -2.82222 -2.82223 v -2.82223 -2.82222 h -2.82222 -2.82222 v 5.64445 5.64444 H 124.5482 113.25931 v -2.82222 -2.82222 h -2.82222 -2.82222 v -5.64445 -5.64444 h -2.82223 -2.82222 v 2.82222 2.82222 H 99.1482 96.325977 v 5.64445 5.64444 z M 73.748199,133.2424 H 62.459311 v -14.11112 -14.11111 h 5.644444 5.644444 v 5.64445 5.64444 h 2.822223 2.822222 v 5.64445 5.64444 h 2.822222 2.822222 v 2.82222 2.82223 z m 50.800001,0 H 90.681533 v -2.82223 -2.82222 h 2.822222 2.822222 v -8.46667 -8.46666 h 2.822223 2.82222 v -2.82222 -2.82223 h 2.82222 2.82223 v 2.82223 2.82222 h 2.82222 2.82222 v 2.82222 2.82222 h 2.82222 2.82223 v -2.82222 -2.82222 h 2.82222 2.82222 v -2.82222 -2.82223 h 8.46667 8.46666 v 2.82223 2.82222 h 2.82223 2.82222 v -2.82222 -2.82223 h 5.64444 5.64445 v 14.11111 14.11112 z M 70.925977,99.375729 H 68.103755 V 96.553506 93.731284 H 65.281533 62.459311 V 79.620173 65.509062 h 47.977779 47.97778 v 16.933333 16.933334 h -2.82223 -2.82222 v -2.822223 -2.822222 h -2.82222 -2.82222 V 90.909062 88.08684 h -2.82222 -2.82223 v 2.822222 2.822222 h -2.82222 -2.82222 v 2.822222 2.822223 h -5.64445 -5.64444 v -2.822223 -2.822222 h -2.82222 -2.82222 V 88.08684 82.442395 h -2.82223 -2.82222 v 5.644445 5.644444 h -2.82222 -2.82222 v 2.822222 2.822223 h -2.82223 -2.82222 V 96.553506 93.731284 H 99.1482 96.325977 v -8.466667 -8.466666 h -2.822222 -2.822222 v -2.822222 -2.822223 h -2.822222 -2.822223 v 2.822223 2.822222 h -2.822222 -2.822222 v 5.644444 5.644445 h -2.822222 -2.822223 v 5.644444 5.644445 z M 110.43709,54.220173 H 62.459311 V 42.931284 31.642395 h 2.822222 2.822222 v 2.822222 2.822222 h 5.644444 5.644445 v -2.822222 -2.822222 h 8.466667 8.466666 v 5.644444 5.644445 h 2.822223 2.82222 v 2.822222 2.822222 h 2.82222 2.82223 v -2.822222 -2.822222 h 2.82222 2.82222 v -5.644445 -5.644444 h 5.64445 5.64444 v 2.822222 2.822222 h 5.64444 5.64445 v -2.822222 -2.822222 h 8.46667 8.46666 v 2.822222 2.822222 h 2.82222 2.82223 v 8.466667 8.466667 z"
         id="path5"
         inkscape:label="BG" /><path
         style="display:inline;fill:#000000"
         d="M 110.43709,184.0424 H 39.881533 V 105.02017 25.997951 h 70.555557 70.55555 v 79.022219 79.02223 z m -59.266668,-5.64445 h 5.644444 v -5.64444 -5.64445 h -5.644444 -5.644445 v 5.64445 5.64444 z m 59.266668,0 h 47.97778 V 161.46462 144.53128 H 110.43709 62.459311 v 16.93334 16.93333 z m 59.26667,0 h 5.64444 v -5.64444 -5.64445 h -5.64444 -5.64445 v 5.64445 5.64444 z M 51.170422,155.82017 h 5.644444 v -5.64444 -5.64445 h -5.644444 -5.644445 v 5.64445 5.64444 z m 118.533338,0 h 5.64444 v -5.64444 -5.64445 h -5.64444 -5.64445 v 5.64445 5.64444 z M 51.170422,133.2424 h 5.644444 v -5.64445 -5.64444 h -5.644444 -5.644445 v 5.64444 5.64445 z m 59.266668,0 h 47.97778 V 99.375729 65.509062 H 110.43709 62.459311 V 99.375729 133.2424 Z m 59.26667,0 h 5.64444 v -5.64445 -5.64444 h -5.64444 -5.64445 v 5.64444 5.64445 z M 51.170422,110.66462 h 5.644444 v -5.64445 -5.644441 h -5.644444 -5.644445 v 5.644441 5.64445 z m 118.533338,0 h 5.64444 v -5.64445 -5.644441 h -5.64444 -5.64445 v 5.644441 5.64445 z M 51.170422,88.08684 h 5.644444 v -5.644445 -5.644444 h -5.644444 -5.644445 v 5.644444 5.644445 z m 118.533338,0 h 5.64444 v -5.644445 -5.644444 h -5.64444 -5.64445 v 5.644444 5.644445 z M 51.170422,65.509062 h 5.644444 v -5.644445 -5.644444 h -5.644444 -5.644445 v 5.644444 5.644445 z m 118.533338,0 h 5.64444 v -5.644445 -5.644444 h -5.64444 -5.64445 v 5.644444 5.644445 z M 110.43709,54.220173 h 47.97778 V 42.931284 31.642395 H 110.43709 62.459311 V 42.931284 54.220173 Z M 51.170422,42.931284 h 5.644444 v -5.644445 -5.644444 h -5.644444 -5.644445 v 5.644444 5.644445 z m 118.533338,0 h 5.64444 v -5.644445 -5.644444 h -5.64444 -5.64445 v 5.644444 5.644445 z"
         id="path4"
         inkscape:label="Frame" /></g></g></svg>
