<?xml version="1.0" encoding="UTF-8" standalone="no"?>
<!-- Created with Inkscape (http://www.inkscape.org/) -->

<svg
   width="329.51099"
   height="44.252445"
   viewBox="0 0 1176.8236 158.04445"
   version="1.1"
   id="svg1"
   xml:space="preserve"
   inkscape:version="1.4.3 (0d15f75, 2025-12-25)"
   sodipodi:docname="MPPSmallWithText.svg"
   xmlns:inkscape="http://www.inkscape.org/namespaces/inkscape"
   xmlns:sodipodi="http://sodipodi.sourceforge.net/DTD/sodipodi-0.dtd"
   xmlns="http://www.w3.org/2000/svg"
   xmlns:svg="http://www.w3.org/2000/svg"><sodipodi:namedview
     id="namedview1"
     pagecolor="#ffffff"
     bordercolor="#000000"
     borderopacity="0.25"
     inkscape:showpageshadow="2"
     inkscape:pageopacity="0.0"
     inkscape:pagecheckerboard="0"
     inkscape:deskcolor="#d1d1d1"
     inkscape:document-units="mm"
     inkscape:zoom="1"
     inkscape:cx="159"
     inkscape:cy="56"
     inkscape:window-width="1190"
     inkscape:window-height="947"
     inkscape:window-x="849"
     inkscape:window-y="31"
     inkscape:window-maximized="0"
     inkscape:current-layer="layer1" /><defs
     id="defs1" /><g
     inkscape:label="Layer 1"
     inkscape:groupmode="layer"
     id="layer1"
     transform="translate(-1.022959,-1.088443)"><g
       id="g4"
       transform="matrix(0.9,0,0,0.9,22.185135,-14.40749)"><path
         style="display:inline;fill:#00ff00;fill-opacity:1"
         d="m 70.925977,178.39795 h -8.466666 v -14.11111 -14.11111 h 2.822222 2.822222 v 2.82222 2.82222 h 2.822222 2.822222 v 5.64445 5.64444 h 2.822223 2.822222 v 5.64445 5.64444 z m 33.866663,0 h -8.466663 v -5.64444 -5.64445 h 2.822223 2.82222 v -2.82222 -2.82222 h 2.82222 2.82223 v 5.64444 5.64445 h 2.82222 2.82222 v 2.82222 2.82222 z m 36.68889,0 h -5.64444 v -5.64444 -5.64445 h 2.82222 2.82222 v 2.82222 2.82223 h 2.82223 2.82222 v 2.82222 2.82222 z M 87.859311,133.2424 h -2.822223 v -2.82223 -2.82222 h -2.822222 -2.822222 v -5.64444 -5.64445 h -2.822222 -2.822223 v -5.64444 -5.64445 h -5.644444 -5.644444 v -5.644441 -5.644445 h 2.822222 2.822222 v 2.822222 2.822223 h 2.822222 2.822222 V 93.731284 88.08684 h 2.822223 2.822222 v -5.644445 -5.644444 h 2.822222 2.822222 v -2.822222 -2.822223 h 2.822223 2.822222 v 2.822223 2.822222 h 2.822222 2.822222 v 8.466666 8.466667 h 2.822223 2.82222 v 2.822222 2.822223 h 2.82222 2.82223 v -2.822223 -2.822222 h 2.82222 2.82222 V 88.08684 82.442395 h 2.82222 2.82223 v 5.644445 5.644444 h 2.82222 2.82222 v 2.822222 2.822223 h 5.64444 5.64445 v -2.822223 -2.822222 h 2.82222 2.82222 V 90.909062 88.08684 h 2.82223 2.82222 v 2.822222 2.822222 h 2.82222 2.82222 v 2.822222 2.822223 h 2.82222 2.82223 v 2.822221 2.82222 h -5.64445 -5.64444 v 2.82223 2.82222 h -2.82222 -2.82223 v -2.82222 -2.82223 h -8.46666 -8.46667 v 2.82223 2.82222 h -2.82222 -2.82222 v 2.82222 2.82222 h -2.82223 -2.82222 v -2.82222 -2.82222 h -2.82222 -2.82222 v -2.82222 -2.82223 h -2.82223 -2.82222 v 2.82223 2.82222 H 99.1482 96.325977 v 8.46666 8.46667 h -2.822222 -2.822222 v 2.82222 2.82223 z M 104.79264,48.575728 h -2.82222 V 45.753506 42.931284 H 99.1482 96.325977 v -5.644445 -5.644444 h 8.466663 8.46667 v 5.644444 5.644445 h -2.82222 -2.82222 v 2.822222 2.822222 z M 73.748199,37.286839 h -5.644444 v -2.822222 -2.822222 h 5.644444 5.644445 v 2.822222 2.822222 z m 56.444441,0 h -5.64444 v -2.822222 -2.822222 h 5.64444 5.64445 v 2.822222 2.822222 z m 25.4,0 h -2.82222 v -2.822222 -2.822222 h 2.82222 2.82223 v 2.822222 2.822222 z"
         id="path6"
         inkscape:label="Wave" /><path
         style="display:inline;fill:#808080"
         d="m 87.859311,178.39795 h -8.466667 v -5.64444 -5.64445 h -2.822222 -2.822223 v -5.64444 -5.64445 h -2.822222 -2.822222 v -2.82222 -2.82222 h -2.822222 -2.822222 v -2.82222 -2.82223 h 47.977779 47.97778 v 16.93334 16.93333 h -5.64445 -5.64444 v -2.82222 -2.82222 h -2.82222 -2.82223 v -2.82223 -2.82222 h -2.82222 -2.82222 v 5.64445 5.64444 H 124.5482 113.25931 v -2.82222 -2.82222 h -2.82222 -2.82222 v -5.64445 -5.64444 h -2.82223 -2.82222 v 2.82222 2.82222 H 99.1482 96.325977 v 5.64445 5.64444 z M 73.748199,133.2424 H 62.459311 v -14.11112 -14.11111 h 5.644444 5.644444 v 5.64445 5.64444 h 2.822223 2.822222 v 5.64445 5.64444 h 2.822222 2.822222 v 2.82222 2.82223 z m 50.800001,0 H 90.681533 v -2.82223 -2.82222 h 2.822222 2.822222 v -8.46667 -8.46666 h 2.822223 2.82222 v -2.82222 -2.82223 h 2.82222 2.82223 v 2.82223 2.82222 h 2.82222 2.82222 v 2.82222 2.82222 h 2.82222 2.82223 v -2.82222 -2.82222 h 2.82222 2.82222 v -2.82222 -2.82223 h 8.46667 8.46666 v 2.82223 2.82222 h 2.82223 2.82222 v -2.82222 -2.82223 h 5.64444 5.64445 v 14.11111 14.11112 z M 70.925977,99.375729 H 68.103755 V 96.553506 93.731284 H 65.281533 62.459311 V 79.620173 65.509062 h 47.977779 47.97778 v 16.933333 16.933334 h -2.82223 -2.82222 v -2.822223 -2.822222 h -2.82222 -2.82222 V 90.909062 88.08684 h -2.82222 -2.82223 v 2.822222 2.822222 h -2.82222 -2.82222 v 2.822222 2.822223 h -5.64445 -5.64444 v -2.822223 -2.822222 h -2.82222 -2.82222 V 88.08684 82.442395 h -2.82223 -2.82222 v 5.644445 5.644444 h -2.82222 -2.82222 v 2.822222 2.822223 h -2.82223 -2.82222 V 96.553506 93.731284 H 99.1482 96.325977 v -8.466667 -8.466666 h -2.822222 -2.822222 v -2.822222 -2.822223 h -2.822222 -2.822223 v 2.822223 2.822222 h -2.822222 -2.822222 v 5.644444 5.644445 h -2.822222 -2.822223 v 5.644444 5.644445 z M 110.43709,54.220173 H 62.459311 V 42.931284 31.642395 h 2.822222 2.822222 v 2.822222 2.822222 h 5.644444 5.644445 v -2.822222 -2.822222 h 8.466667 8.466666 v 5.644444 5.644445 h 2.822223 2.82222 v 2.822222 2.822222 h 2.82222 2.82223 v -2.822222 -2.822222 h 2.82222 2.82222 v -5.644445 -5.644444 h 5.64445 5.64444 v 2.822222 2.822222 h 5.64444 5.64445 v -2.822222 -2.822222 h 8.46667 8.46666 v 2.822222 2.822222 h 2.82222 2.82223 v 8.466667 8.466667 z"
         id="path5"
         inkscape:label="BG" /><path
         style="display:inline;fill:#000000"
         d="M 110.43709,184.0424 H 39.881533 V 105.02017 25.997951 h 70.555557 70.55555 v 79.022219 79.02223 z m -59.266668,-5.64445 h 5.644444 v -5.64444 -5.64445 h -5.644444 -5.644445 v 5.64445 5.64444 z m 59.266668,0 h 47.97778 V 161.46462 144.53128 H 110.43709 62.459311 v 16.93334 16.93333 z m 59.26667,0 h 5.64444 v -5.64444 -5.64445 h -5.64444 -5.64445 v 5.64445 5.64444 z M 51.170422,155.82017 h 5.644444 v -5.64444 -5.64445 h -5.644444 -5.644445 v 5.64445 5.64444 z m 118.533338,0 h 5.64444 v -5.64444 -5.64445 h -5.64444 -5.64445 v 5.64445 5.64444 z M 51.170422,133.2424 h 5.644444 v -5.64445 -5.64444 h -5.644444 -5.644445 v 5.64444 5.64445 z m 59.266668,0 h 47.97778 V 99.375729 65.509062 H 110.43709 62.459311 V 99.375729 133.2424 Z m 59.26667,0 h 5.64444 v -5.64445 -5.64444 h -5.64444 -5.64445 v 5.64444 5.64445 z M 51.170422,110.66462 h 5.644444 v -5.64445 -5.644441 h -5.644444 -5.644445 v 5.644441 5.64445 z m 118.533338,0 h 5.64444 v -5.64445 -5.644441 h -5.64444 -5.64445 v 5.644441 5.64445 z M 51.170422,88.08684 h 5.644444 v -5.644445 -5.644444 h -5.644444 -5.644445 v 5.644444 5.644445 z m 118.533338,0 h 5.64444 v -5.644445 -5.644444 h -5.64444 -5.64445 v 5.644444 5.644445 z M 51.170422,65.509062 h 5.644444 v -5.644445 -5.644444 h -5.644444 -5.644445 v 5.644444 5.644445 z m 118.533338,0 h 5.64444 v -5.644445 -5.644444 h -5.64444 -5.64445 v 5.644444 5.644445 z M 110.43709,54.220173 h 47.97778 V 42.931284 31.642395 H 110.43709 62.459311 V 42.931284 54.220173 Z M 51.170422,42.931284 h 5.644444 v -5.644445 -5.644444 h -5.644444 -5.644445 v 5.644444 5.644445 z m 118.533338,0 h 5.64444 v -5.644445 -5.644444 h -5.64444 -5.64445 v 5.644444 5.644445 z"
         id="path4"
         inkscape:label="Frame" /></g><path
       d="M 311.10915,129.6599 H 298.67894 V 49.114686 l -25.99042,54.805904 h -7.4079 L 239.47853,49.114686 V 129.6599 H 227.86445 V 36.182251 h 16.95028 l 24.92318,52.043632 24.10706,-52.043632 h 17.26418 z m 83.93526,-35.030578 q 0,17.138618 -8.78903,27.057668 -8.78903,9.91905 -23.54205,9.91905 -14.87858,0 -23.66761,-9.91905 -8.72626,-9.91905 -8.72626,-27.057668 0,-17.138615 8.72626,-27.057666 8.78903,-9.981831 23.66761,-9.981831 14.75302,0 23.54205,9.981831 8.78903,9.919051 8.78903,27.057666 z m -12.17908,0 q 0,-13.623001 -5.3362,-20.214776 -5.3362,-6.654554 -14.8158,-6.654554 -9.60516,0 -14.94136,6.654554 -5.27342,6.591775 -5.27342,20.214776 0,13.183548 5.3362,20.026438 5.3362,6.78011 14.87858,6.78011 9.41682,0 14.75302,-6.71733 5.39898,-6.78011 5.39898,-20.089218 z m 87.32532,35.030578 h -11.80241 v -7.34512 q -5.08509,4.39451 -10.60962,6.84289 -5.52454,2.44837 -11.99075,2.44837 -12.55576,0 -19.96366,-9.66794 -7.34512,-9.66793 -7.34512,-26.806548 0,-8.91459 2.51115,-15.883038 2.57393,-6.968448 6.90567,-11.865195 4.26896,-4.771189 9.91905,-7.282342 5.71287,-2.511152 11.80241,-2.511152 5.52454,0 9.7935,1.192797 4.26896,1.130019 8.97737,3.578392 V 31.976071 h 11.80241 z M 458.38824,112.39572 V 72.154509 q -4.77119,-2.13448 -8.53792,-2.950604 -3.76673,-0.816125 -8.22402,-0.816125 -9.91906,0 -15.44359,6.905669 -5.52454,6.905669 -5.52454,19.586988 0,12.492983 4.26896,19.021983 4.26896,6.46621 13.68578,6.46621 5.02231,0 10.17017,-2.19726 5.14786,-2.26003 9.60516,-5.77565 z m 97.1188,-47.963005 q 0,6.215102 -2.19726,11.551301 -2.13448,5.27342 -6.02677,9.165706 -4.83396,4.833968 -11.42574,7.282342 -6.59177,2.385594 -16.63638,2.385594 H 506.79068 V 129.6599 h -12.4302 V 36.182251 h 25.36264 q 8.41236,0 14.25079,1.443913 5.83843,1.381134 10.3585,4.394517 5.3362,3.578392 8.22402,8.91459 2.95061,5.336199 2.95061,13.497444 z m -12.93244,0.313894 q 0,-4.833968 -1.69502,-8.41236 -1.69503,-3.578392 -5.14787,-5.838429 -3.01338,-1.946143 -6.90566,-2.762268 -3.82951,-0.878903 -9.73072,-0.878903 H 506.79068 V 84.20804 h 10.48406 q 7.53346,0 12.24187,-1.318355 4.70841,-1.381134 7.65902,-4.331738 2.9506,-3.013383 4.1434,-6.34066 1.25557,-3.327276 1.25557,-7.470678 z m 40.304,64.913291 H 571.07618 V 31.976071 h 11.80242 z m 81.48691,0 H 652.5631 v -7.78458 q -5.96399,4.70842 -11.42575,7.21957 -5.46175,2.51115 -12.05353,2.51115 -11.04907,0 -17.20139,-6.71733 -6.15233,-6.78011 -6.15233,-19.83811 V 59.535968 h 11.80242 V 99.46329 q 0,5.3362 0.50223,9.16571 0.50223,3.76672 2.13448,6.46621 1.69503,2.76227 4.39452,4.01785 2.69949,1.25557 7.84735,1.25557 4.58285,0 9.98183,-2.38559 5.46175,-2.3856 10.17017,-6.08955 V 59.535968 h 11.80241 z m 80.10575,-7.97291 q 0,17.82918 -8.09846,26.17876 -8.09847,8.34958 -24.92319,8.34958 -5.58731,0 -10.92351,-0.81612 -5.27342,-0.75335 -10.42128,-2.19726 v -12.05353 h 0.62778 q 2.88783,1.13002 9.16571,2.76227 6.27788,1.69502 12.55576,1.69502 6.02677,0 9.98183,-1.44391 3.95507,-1.44391 6.15232,-4.01784 2.19726,-2.44838 3.13895,-5.90121 0.94168,-3.45283 0.94168,-7.72179 v -6.40344 q -5.3362,4.26896 -10.23295,6.40344 -4.83397,2.0717 -12.36742,2.0717 -12.55577,0 -19.96366,-9.04015 -7.34512,-9.10293 -7.34512,-25.613755 0,-9.040148 2.51115,-15.569144 2.57393,-6.591775 6.96845,-11.362965 4.08062,-4.457295 9.91905,-6.905669 5.83843,-2.511152 11.61408,-2.511152 6.08954,0 10.17016,1.255576 4.1434,1.192798 8.72626,3.70395 l 0.75334,-3.013383 h 11.04907 z M 732.66885,110.3868 V 72.154509 q -4.70841,-2.13448 -8.78904,-3.013383 -4.01784,-0.941682 -8.03568,-0.941682 -9.73072,0 -15.31803,6.528996 -5.58732,6.528996 -5.58732,18.9592 0,11.80242 4.14341,17.89196 4.1434,6.08954 13.74855,6.08954 5.14787,0 10.29573,-1.94614 5.21064,-2.00892 9.54238,-5.3362 z"
       id="text1"
       style="font-size:128.571px;-inkscape-font-specification:'sans-serif, Normal';fill:#ff0000;stroke-width:3.57143"
       aria-label="ModPlug" /><path
       d="m 842.58226,64.432715 q 0,6.215102 -2.19726,11.551301 -2.13448,5.27342 -6.02677,9.165706 -4.83397,4.833968 -11.42574,7.282342 -6.59178,2.385594 -16.63639,2.385594 H 793.8659 V 129.6599 H 781.4357 V 36.182251 h 25.36264 q 8.41236,0 14.25078,1.443913 5.83843,1.381134 10.35851,4.394517 5.3362,3.578392 8.22402,8.91459 2.95061,5.336199 2.95061,13.497444 z m -12.93244,0.313894 q 0,-4.833968 -1.69503,-8.41236 -1.69502,-3.578392 -5.14786,-5.838429 -3.01338,-1.946143 -6.90567,-2.762268 -3.8295,-0.878903 -9.73071,-0.878903 H 793.8659 V 84.20804 h 10.48406 q 7.53346,0 12.24187,-1.318355 4.70841,-1.381134 7.65901,-4.331738 2.95061,-3.013383 4.14341,-6.34066 1.25557,-3.327276 1.25557,-7.470678 z m 40.304,64.913291 H 858.1514 V 31.976071 h 11.80242 z m 77.84572,0 h -11.73963 v -7.47068 q -1.56948,1.06724 -4.26896,3.01338 -2.63671,1.88337 -5.14787,3.01338 -2.9506,1.44392 -6.78011,2.3856 -3.8295,1.00446 -8.97737,1.00446 -9.4796,0 -16.07137,-6.27788 -6.59178,-6.27788 -6.59178,-16.0086 0,-7.97291 3.39006,-12.869653 3.45283,-4.959526 9.79349,-7.784572 6.40344,-2.825046 15.38081,-3.829507 8.97737,-1.004461 19.2731,-1.506692 v -1.820585 q 0,-4.017844 -1.44392,-6.654554 -1.38113,-2.63671 -4.01784,-4.143401 -2.51115,-1.443913 -6.02677,-1.946143 -3.51561,-0.502231 -7.34512,-0.502231 -4.64563,0 -10.3585,1.255577 -5.71287,1.192797 -11.80242,3.515613 h -0.62778 V 61.04266 q 3.45283,-0.941683 9.98183,-2.071701 6.52899,-1.130019 12.86965,-1.130019 7.4079,0 12.86966,1.255576 5.52453,1.192798 9.54238,4.143402 3.95506,2.887825 6.02676,7.470678 2.0717,4.582853 2.0717,11.362964 z M 936.05991,112.39572 V 92.871515 q -5.39898,0.313894 -12.7441,0.941682 -7.28234,0.627788 -11.5513,1.820586 -5.08509,1.443912 -8.22403,4.520077 -3.13894,3.01338 -3.13894,8.34958 0,6.02676 3.64117,9.10293 3.64117,3.01338 11.11185,3.01338 6.2151,0 11.36297,-2.3856 5.14786,-2.44837 9.54238,-5.83843 z M 1030.1655,59.535968 989.23355,155.52477 H 976.61501 L 989.673,126.26984 961.73644,59.535968 h 12.80687 l 21.53313,51.980852 21.72156,-51.980852 z m 73.0117,36.286151 h -51.6669 q 0,6.466221 1.9461,11.300181 1.9461,4.77119 5.3362,7.84736 3.2645,3.01338 7.7218,4.52007 4.5201,1.50669 9.919,1.50669 7.1568,0 14.3764,-2.82505 7.2823,-2.88782 10.3585,-5.65009 h 0.6278 v 12.86966 q -5.964,2.51115 -12.1791,4.20618 -6.2151,1.69503 -13.058,1.69503 -17.4525,0 -27.246,-9.41683 -9.7935,-9.4796 -9.7935,-26.869325 0,-17.201394 9.354,-27.308782 9.4169,-10.107388 24.7349,-10.107388 14.188,0 21.847,8.286803 7.7218,8.286802 7.7218,23.542053 z m -11.4885,-9.040148 q -0.063,-9.291264 -4.7084,-14.376347 -4.5829,-5.085084 -13.9997,-5.085084 -9.4796,0 -15.1297,5.587314 -5.5873,5.587314 -6.3406,13.874117 z m 73.1373,-14.376347 h -0.6278 q -2.6367,-0.627788 -5.1478,-0.878904 -2.4484,-0.313894 -5.8385,-0.313894 -5.4617,0 -10.5468,2.448374 -5.0851,2.385595 -9.7935,6.215102 V 129.6599 h -11.8024 V 59.535968 h 11.8024 v 10.358503 q 7.0312,-5.650092 12.3674,-7.972908 5.399,-2.385595 10.9863,-2.385595 3.0762,0 4.4573,0.188337 1.3811,0.125557 4.1434,0.565009 z"
       id="text2"
       style="font-size:128.571px;-inkscape-font-specification:'sans-serif, Normal';stroke-width:3.57143"
       aria-label="Player" /></g></svg>
